<svg width="135" height="70" viewBox="0 0 135 70" fill="none" xmlns="http://www.w3.org/2000/svg">
<path fillRule="evenodd" clipRule="evenodd" d="M1.35641 7.15224C0.606056 7.15224 0 6.54902 0 5.8022V1.666C0 0.919177 0.606056 0.315955 1.35641 0.315955H28.1383C28.8887 0.315955 29.4947 0.919177 29.4947 1.666V5.8022C29.4947 6.54902 28.8887 7.15224 28.1383 7.15224H18.7012V29.1547C18.7012 29.9015 18.0951 30.5047 17.3448 30.5047H12.15C11.3996 30.5047 10.7936 29.9015 10.7936 29.1547V7.15224H1.35641ZM115.353 17.1481H121.933L118.643 8.99058L115.353 17.1481ZM124.357 23.5536H112.9L110.447 29.643C110.245 30.16 109.754 30.5047 109.177 30.5047H103.693C103.232 30.5047 102.828 30.3036 102.568 29.9015C102.308 29.4994 102.25 29.0685 102.452 28.6377L112.871 3.93515C114.054 1.14894 115.584 0 118.672 0C121.673 0 123.318 1.17766 124.472 3.93515L134.891 28.6377C135.064 29.0685 135.035 29.5281 134.775 29.9015C134.516 30.3036 134.112 30.5047 133.65 30.5047H128.167C127.589 30.5047 127.128 30.1888 126.897 29.6717L124.357 23.5536ZM79.7109 23.6685C79.8263 23.6685 79.9706 23.6685 80.0283 23.6685H86.0312C87.907 23.6685 89.7541 23.4674 90.8219 21.7439C91.8897 20.0205 92.0051 16.6024 92.0051 14.6779C92.0051 12.7247 91.8897 10.197 90.4467 8.70334C89.2346 7.43949 87.1856 7.12353 85.5117 7.12353H80.1149C80.0283 7.12353 79.8552 7.12353 79.7397 7.12353C79.7109 7.2097 79.682 7.32459 79.682 7.41077V23.1227C79.7109 23.2376 79.682 23.4961 79.7109 23.6685ZM73.4483 29.4707C72.265 28.5515 71.7744 27.1153 71.7744 25.6504V6.06072C71.7744 4.48091 71.9764 3.15964 73.0731 1.95324C74.0832 0.833005 75.555 0.315955 77.0558 0.315955H87.8782C91.3414 0.315955 94.6025 1.43619 96.969 4.02134C99.8262 7.15224 100.115 11.0874 100.115 15.1087C100.115 18.8716 99.7684 23.4674 97.4019 26.5983C95.2952 29.3845 92.0052 30.5047 88.5708 30.5047H77.3732C76.0745 30.5047 74.4584 30.2749 73.4483 29.4707ZM43.2898 21.6291L45.1079 19.8195C45.6274 19.3024 46.4932 19.3024 47.0415 19.8195L50.7356 23.4961C51.2551 24.0131 51.2551 24.8748 50.7356 25.4206L40.3172 35.7899C39.7977 36.3069 38.9319 36.3069 38.3836 35.7899L27.9652 25.4206C27.4457 24.9036 27.4457 24.0419 27.9652 23.4961L31.6592 19.8195C32.1787 19.3024 33.0445 19.3024 33.5928 19.8195L35.411 21.6291V11.6332C35.411 8.61715 36.0171 5.88837 38.2104 3.64791C41.0098 0.804254 44.9636 0.287238 48.7731 0.287238C52.5826 0.287238 56.5364 0.804254 59.3358 3.64791C61.5292 5.88837 62.1352 8.58843 62.1352 11.6332V29.4707C62.1352 30.2175 61.5292 30.8207 60.7788 30.8207H55.584C54.8337 30.8207 54.2276 30.2175 54.2276 29.4707V12.3513C54.2276 11.0874 54.1699 9.45014 53.2752 8.47353C52.2652 7.3533 50.2161 7.15224 48.802 7.15224C47.3301 7.15224 45.4254 7.32458 44.3576 8.47353C43.4052 9.50759 43.3763 11.0012 43.3763 12.3513V21.6291H43.2898Z" fill="#FDCE05"/>
<path fillRule="evenodd" clipRule="evenodd" d="M7.35909 56.0115C5.94495 55.6094 4.35767 54.6615 3.43415 53.5413C2.02002 51.8465 1.70256 49.6061 1.70256 47.4805C1.70256 45.1826 2.13546 43.0283 3.89591 41.3911C5.42548 39.9549 7.33023 39.4953 9.35042 39.4953H25.2522C26.0025 39.4953 26.6086 40.0985 26.6086 40.8453V44.9815C26.6086 45.7284 26.0025 46.3316 25.2522 46.3316H11.1397C10.7645 46.3316 10.1874 46.3316 9.89875 46.5901C9.63901 46.8199 9.61015 47.3943 9.61015 47.7103C9.61015 47.8826 9.61016 48.0837 9.63902 48.2561C9.78331 49.0029 10.5337 49.3189 11.1974 49.5199L21.2984 52.7083C22.8568 53.1966 24.5884 53.8572 25.7717 54.9774C27.5033 56.6147 28.0227 58.9701 28.0227 61.268C28.0227 63.3648 27.6764 65.5191 26.3489 67.2138C24.7616 69.2532 22.7991 69.684 20.346 69.684H3.40529C2.65493 69.684 2.04888 69.0809 2.04888 68.334V64.1978C2.04888 63.451 2.65493 62.8478 3.40529 62.8478H18.701C19.8554 62.8478 19.942 62.2158 19.942 61.2105C19.942 60.8945 19.9131 60.5499 19.74 60.2914C19.4225 59.8318 18.701 59.5445 18.2104 59.4009L7.35909 56.0115ZM115.353 56.3275H121.933L118.643 48.1699L115.353 56.3275ZM124.357 62.7329H112.9L110.446 68.8223C110.244 69.3394 109.754 69.684 109.177 69.684H103.693C103.231 69.684 102.827 69.483 102.568 69.0808C102.308 68.6787 102.25 68.2478 102.452 67.817L112.871 43.1145C114.054 40.3283 115.583 39.1793 118.671 39.1793C121.673 39.1793 123.318 40.357 124.472 43.1145L134.891 67.817C135.064 68.2478 135.035 68.7074 134.775 69.0808C134.516 69.483 134.111 69.684 133.65 69.684H128.166C127.589 69.684 127.127 69.3681 126.897 68.851L124.357 62.7329ZM79.7107 62.8478C79.8261 62.8478 79.9704 62.8478 80.0281 62.8478H86.031C87.9069 62.8478 89.7539 62.6467 90.8217 60.9233C91.8895 59.1998 92.005 55.7817 92.005 53.8572C92.005 51.904 91.8895 49.3763 90.4465 47.8826C89.2344 46.6188 87.1854 46.3028 85.5115 46.3028H80.1147C80.0281 46.3028 79.855 46.3029 79.7395 46.3316C79.7107 46.4178 79.6818 46.5326 79.6818 46.6188V62.3307C79.7107 62.4169 79.6818 62.7042 79.7107 62.8478ZM88.5418 69.684H77.3442C76.0455 69.684 74.4871 69.4543 73.4192 68.65C72.236 67.7308 71.7454 66.2946 71.7454 64.8297V45.2401C71.7454 43.6602 71.9474 42.3389 73.0441 41.1325C74.0542 40.0123 75.526 39.4953 77.0267 39.4953H87.8492C91.3123 39.4953 94.5735 40.6155 96.94 43.2007C99.7971 46.3316 100.086 50.2667 100.086 54.2881C100.086 58.0509 99.7394 62.6467 97.3729 65.7776C95.2661 68.5351 91.9761 69.684 88.5418 69.684ZM54.1409 48.6582L52.3227 50.4678C51.8032 50.9848 50.9374 50.9848 50.3891 50.4678L46.695 46.7912C46.1756 46.2741 46.1756 45.4124 46.695 44.8666L57.1134 34.4973C57.6329 33.9803 58.4987 33.9803 59.047 34.4973L69.4654 44.8666C69.9849 45.3837 69.9849 46.2454 69.4654 46.7912L65.7714 50.4678C65.2519 50.9848 64.3861 50.9848 63.8378 50.4678L62.0196 48.6582V58.6541C62.0196 61.6701 61.4136 64.3989 59.2202 66.6393C56.4208 69.483 52.467 70 48.6575 70C44.848 70 40.8942 69.483 38.0948 66.6393C35.9015 64.3989 35.2954 61.6988 35.2954 58.6541V40.8166C35.2954 40.0698 35.9015 39.4666 36.6518 39.4666H41.8466C42.5969 39.4666 43.203 40.0698 43.203 40.8166V57.936C43.203 59.2573 43.2319 60.7796 44.1842 61.8137C45.252 62.9627 47.1568 63.135 48.6287 63.135C50.0428 63.135 52.0918 62.9339 53.1019 61.8137C53.9966 60.8371 54.0543 59.1998 54.0543 57.936V48.6582H54.1409Z" fill="#FDCE05"/>
</svg>
